<?xml version="1.0" encoding="utf-8"?>
<!-- Generator: Adobe Illustrator 21.0.2, SVG Export Plug-In . SVG Version: 6.00 Build 0)  -->
<svg version="1.1" id="Layer_1" xmlns="http://www.w3.org/2000/svg" xmlns:xlink="http://www.w3.org/1999/xlink" x="0px" y="0px"
	 viewBox="0 0 500 500" style="enable-background:new 0 0 500 500;" xml:space="preserve">
<style type="text/css">
	.st0{fill:#231F20;}
</style>
<path class="st0" d="M191.2,266.4c0,0.6-11.3,6-11.3,6V255l9.4-6.8C189.3,248.2,191.2,265.8,191.2,266.4z M162.5,283.9l9.6-7v-15.5
	l-10.6,5.7L162.5,283.9z M143.3,278.6l1.3,15.3l8.7-5.5l-0.2-14.9L143.3,278.6z M124.2,290.1l1.3,14.7l10-5.1l-0.2-14.7L124.2,290.1
	z M108.9,299.2l-0.2,12.1l9.6-4.7l-1.3-12.1L108.9,299.2z M93.4,309c0,0-0.4,12.3-0.2,11.7c0.2-0.6,8.9-4.5,8.9-4.5l-1.7-11.1
	L93.4,309z"/>
<path class="st0" d="M404.3,296c-5.1,30.2-21.3,79.6-21.3,79.6s25.1-0.9,34.5,17c1.1,2.1,1.2,3.7,0.7,5c-17.5-3.7-36.1-4.3-54.8-4.4
	c-9.9-2.6-30.1-7.7-39.9-7.4c-13.2,0.4-286.3,9.4-286.3,9.4L30,373c0,0,324.6-151.4,402.4-138.7C432.4,234.3,409.4,265.8,404.3,296z
	 M465.2,177.3c-5.5,7.2-26.8,49.3-26.8,49.3C343.9,206.3,29.6,364.5,29.6,364.5l0.9-24.7l5.1-3.4l0.9-13.6l16.6-11.1v-19.1
	l22.5-18.3v-62.1c0-2.1,1.7-3.8,3.8-3.8s3.8,1.7,3.8,3.8v52.3l18.3-16.6l2.1-10.6l22.1-18.7h9.8l8.1-5.5l1.3-6l14.9-11.1v-8.9
	l-5.5-1.7v-16.2h73.6l10.2-11.1c2.5-2.7,6-4.2,9.6-4.2h25c3.5,0,6.8,1.4,9.2,3.8h5.1l9.4,9.4v-60.8c0-2.1,1.7-3.8,3.8-3.8
	c2.1,0,3.8,1.7,3.8,3.8v69.3c1-0.1,32.3-0.8,32.3-0.8l7.2,3.8l-0.9,8.5c56.6-28.1,97.4-34.9,97.4-34.9v-11c0-1.9,1.5-3.4,3.4-3.4
	c1.9,0,3.4,1.5,3.4,3.4l0.3,12.4l7.2-0.4C477.1,152.6,470.7,170.1,465.2,177.3z M437.9,165c-65.5,16.6-239.5,93.6-239.5,93.6
	l1.3-26.8L35.5,344.5v9.8c251.7-129.8,400-161.4,407.2-162.9c0.1,0.1,0.3-0.1,0.3-0.1s-0.1,0-0.3,0.1c-0.3-0.2,0.6-2.2,11.4-15
	C468.6,159.5,437.9,165,437.9,165z M219.7,123.7l-1.3-14.3c0,0-31.7-9.1-51,23.4l0.6,11.7C168,144.6,189.1,121.8,219.7,123.7z
	 M183.3,164.3l37.2-1.3l-0.4-11.9C188,150.3,183.3,164.3,183.3,164.3z M141.3,202.5l-0.2-10.4c0,0-13.7-4.5-23.5,4.3
	s-15.8,14.4-15.8,14.4l1,8.6C102.8,219.4,111,202.3,141.3,202.5z"/>
<path class="st0" d="M220.3,135l-0.6,6c-38.3,0.2-46.6,23.8-46.6,23.8l-4.7,0.6v-8.7C184.2,129.7,220.3,135,220.3,135z M116.1,212.5
	c-6.4,5.3-13.4,12.3-13.4,12.3l-0.3,7.8c0,0,1.8,2.4,2.7,0.5c1-1.9,6.5-19.8,34.5-19.6l-0.3-5.1
	C139.2,208.4,122.5,207.3,116.1,212.5z"/>
</svg>
